<svg viewBox="0 0 32 32" xml:space="preserve" xmlns="http://www.w3.org/2000/svg"><path d="M15 30.5C7.556 30.5 1.5 24.444 1.5 17S7.556 3.5 15 3.5 28.5 9.556 28.5 17 22.444 30.5 15 30.5z" fill="#80D8FF" class="fill-80d8ff"></path><path d="M25.678 8.771c.613 1.541.96 3.214.96 4.97 0 7.444-6.056 13.5-13.5 13.5-4.345 0-8.207-2.073-10.678-5.271C4.445 26.958 9.312 30.5 15 30.5c7.444 0 13.5-6.056 13.5-13.5 0-3.099-1.06-5.948-2.822-8.229z" fill="#65C7EA" class="fill-65c7ea"></path><path d="M28.5 17c0-4.235-1.968-8.009-5.03-10.486a.754.754 0 0 0-.699-.127l-2.35.743a.746.746 0 0 0-.442.376l-.692 1.387a.754.754 0 0 1-.284.306l-1.858 1.115a.744.744 0 0 0-.348.492 1.677 1.677 0 0 0 1.643 2.005h4.302c.527 0 .889.533.692 1.022l-.404 1.008a1.36 1.36 0 0 1-2.318.104c-.126-.183-.352-.272-.574-.272h-4.717a.743.743 0 0 0-.639.362l-.554.923a.9.9 0 0 0 .554 1.337s.683.461.683.875v1.819c0 .174.061.344.173.477l1.931 2.318c.142.17.352.268.573.268h2.405c.305 0 .58.186.692.468l.744 1.859 2.69.475a.75.75 0 0 0 .706-.252A13.413 13.413 0 0 0 28.5 17z" fill="#55FB9B" class="fill-55fb9b"></path><path d="M25.678 8.771c.613 1.541.96 3.214.96 4.97 0 4.265-1.994 8.068-5.092 10.544l.438 1.094 2.69.475a.75.75 0 0 0 .706-.252c.022-.026.057-.055.081-.082a13.438 13.438 0 0 0 .217-16.749z" fill="#43E886" class="fill-43e886"></path><path d="M1.527 16.463c.121.042.248.072.385.072h.262a1.187 1.187 0 0 1 1.186 1.189v.417a1.188 1.188 0 0 1-1.188 1.186h-.457a13.493 13.493 0 0 0 4.966 8.283l1.21-2.443c.083-.167.202-.311.351-.422l1.373-1.03c.173-.131.305-.301.385-.502l.725-1.813c.056-.14.084-.284.084-.435v-1.03c0-.995-1.152-1.549-1.929-.926l-.073.058c-.211.168-.473.26-.742.26h-.517a1.186 1.186 0 0 1-1.152-.899l-.113-.449a1.19 1.19 0 0 1 .168-.953l.609-.9c.221-.327.589-.522.983-.522h.113c.941 0 1.507-1.045.995-1.835l-.01-.019a1.18 1.18 0 0 1-.193-.648v-1.419c0-.449.252-.859.654-1.061l1.17-.586c.507-.253.788-.836.613-1.375-.249-.774-.784-1.409-1.505-1.437H5.716a13.451 13.451 0 0 0-4.189 9.239zM9.021 4.915l4.357 1.089a.931.931 0 0 0 1.157-.904V3.523a13.41 13.41 0 0 0-5.514 1.392z" fill="#55FB9B" class="fill-55fb9b"></path><path d="m22.961 27.878-3.163-1.055a1.787 1.787 0 0 0-2.198.97l-1.168 2.628a13.405 13.405 0 0 0 6.529-2.543zM7.491 25.977A13.613 13.613 0 0 1 2.46 21.97a13.587 13.587 0 0 0 4.206 5.63l.016.011.809-1.634z" fill="#43E886" class="fill-43e886"></path><path d="M1.965 18.396c0-7.444 6.057-13.5 13.5-13.5 5.685 0 10.55 3.537 12.536 8.521C26.427 7.709 21.203 3.5 15 3.5 7.556 3.5 1.5 9.556 1.5 17c0 1.759.348 3.436.964 4.979a13.369 13.369 0 0 1-.499-3.583z" fill="#FFFFFF" class="fill-ffffff"></path><path d="M27.007 1.5a3.49 3.49 0 0 0-2.891 1.532 3.493 3.493 0 0 0-6.384 1.961c0 4.095 6.384 7.507 6.384 7.507S30.5 9.088 30.5 4.993A3.493 3.493 0 0 0 27.007 1.5z" fill="#ffffff" class="fill-ff8a80"></path><path d="M27.007 1.5a3.49 3.49 0 0 0-2.891 1.532 3.493 3.493 0 0 0-6.384 1.961c0 4.095 6.384 7.507 6.384 7.507S30.5 9.088 30.5 4.993A3.493 3.493 0 0 0 27.007 1.5z" fill="#FFFFFF" class="fill-ffffff"></path><path d="M30.484 4.641c-.009-.031-.02-.062-.028-.093a3.48 3.48 0 0 0-3.023-1.772 3.48 3.48 0 0 0-2.338.898.821.821 0 0 1-1.096.008 3.48 3.48 0 0 0-2.239-.905c-1.002-.03-1.932.455-2.616 1.189-.992 1.064-1.088 2.064-.918 3.024 1.487 3.149 5.891 5.51 5.891 5.51s6.752-3.609 6.367-7.859z" fill="#ffffff" class="fill-ff8a80"></path><path d="M30.03 3.272c.019.147.044.292.044.445 0 1.958-1.46 3.761-2.985 5.108a5.128 5.128 0 0 1-6.813-.021C19.3 7.935 18.35 6.877 17.8 5.712c.67 3.768 6.316 6.788 6.316 6.788S30.5 9.088 30.5 4.993c0-.629-.18-1.211-.47-1.721z" fill="#ffffff" class="fill-f27670"></path><path d="M21.052 13.311H18.44c-.654 0-1.267-.29-1.682-.796a2.168 2.168 0 0 1-.452-1.807c.068-.344.281-.645.582-.824l.585-.351a.5.5 0 0 1 .515.857l-.586.352a.246.246 0 0 0-.115.161 1.175 1.175 0 0 0 1.153 1.407h2.611a.5.5 0 0 1 .001 1.001zM24.806 26.366c-.073 0-.146-.006-.22-.02l-2.689-.474a.5.5 0 0 1-.378-.307l-.744-1.859a.247.247 0 0 0-.228-.154h-2.405c-.37 0-.719-.163-.957-.447l-1.932-2.319a1.24 1.24 0 0 1-.289-.797V18.17c-.02-.073-.211-.274-.404-.419a1.384 1.384 0 0 1-.854-.792 1.388 1.388 0 0 1 .092-1.258l.554-.923a1.249 1.249 0 0 1 1.068-.604h4.717c.406 0 .774.183.985.488a.84.84 0 0 0 .758.381.856.856 0 0 0 .71-.442l.157-.4a.5.5 0 1 1 .928.372l-.183.456c-.339.623-.913.981-1.562 1.014a1.889 1.889 0 0 1-1.631-.813c-.019-.027-.082-.056-.162-.056H15.42a.244.244 0 0 0-.21.118l-.554.924a.395.395 0 0 0-.026.36.393.393 0 0 0 .272.234.485.485 0 0 1 .159.071c.212.143.903.659.903 1.29v1.819c0 .058.02.113.056.156l1.932 2.319a.243.243 0 0 0 .188.088h2.405c.514 0 .967.308 1.157.784l.64 1.6 2.416.427a.256.256 0 0 0 .235-.08.5.5 0 0 1 .768.64 1.24 1.24 0 0 1-.955.442zM6.682 28.11a.5.5 0 0 1-.309-.107 13.975 13.975 0 0 1-5.15-8.59.503.503 0 0 1 .493-.586h.458c.336 0 .629-.25.68-.582a.5.5 0 0 1 .988.152 1.677 1.677 0 0 1-1.518 1.423 12.975 12.975 0 0 0 4.19 7.002l.93-1.878c.119-.238.292-.446.501-.601l1.371-1.029a.665.665 0 0 0 .221-.288l.725-1.812a.662.662 0 0 0 .049-.25v-1.03a.672.672 0 0 0-.39-.619.673.673 0 0 0-.727.083c-.372.297-.746.428-1.127.428h-.519c-.776 0-1.45-.526-1.638-1.278l-.112-.448a1.691 1.691 0 0 1 .239-1.355l.61-.901a1.684 1.684 0 0 1 1.397-.742h.113c.255 0 .48-.134.603-.359a.68.68 0 0 0-.027-.704 1.711 1.711 0 0 1-.284-.938v-1.419c0-.643.356-1.22.93-1.508l1.17-.586c.3-.15.455-.483.361-.774-.166-.514-.529-1.07-1.05-1.09H8.043a.5.5 0 0 1 0-1h1.836c.886.033 1.638.716 1.981 1.784.245.756-.126 1.606-.865 1.976l-1.17.586a.684.684 0 0 0-.377.614v1.419c0 .135.038.262.112.375.354.546.379 1.191.079 1.744-.3.552-.854.882-1.481.882h-.114a.686.686 0 0 0-.569.302l-.61.901a.687.687 0 0 0-.097.552l.112.448a.686.686 0 0 0 .667.521h.518a.695.695 0 0 0 .43-.151c.583-.468 1.268-.545 1.857-.262.59.283.957.866.957 1.521v1.03c0 .211-.041.42-.12.62l-.725 1.813c-.113.283-.303.53-.548.716l-1.374 1.031a.69.69 0 0 0-.205.246l-1.207 2.44a.5.5 0 0 1-.448.278z" fill="#455A64" class="fill-455a64"></path><path d="M2.958 17.332a.501.501 0 0 1-.332-.126c-.222-.164-.298-.5-.134-.723s.449-.292.669-.128c.044.032.087.066.129.103a.5.5 0 0 1-.332.874zM11.047 5.921a.517.517 0 0 1-.123-.015l-.347-.087a.5.5 0 1 1 .244-.97l.347.087a.5.5 0 0 1-.121.985zM13.607 6.533c-.117 0-.235-.015-.351-.044l-1.131-.283a.5.5 0 1 1 .242-.97l1.132.283a.433.433 0 0 0 .536-.419V3.523a.5.5 0 0 1 1 0V5.1c0 .444-.201.856-.551 1.129a1.424 1.424 0 0 1-.877.304zM16.431 30.922a.5.5 0 0 1-.457-.703l1.168-2.628a2.275 2.275 0 0 1 2.813-1.241l1.323.441a.5.5 0 1 1-.316.948l-1.323-.441a1.282 1.282 0 0 0-1.583.699l-1.168 2.628a.498.498 0 0 1-.457.297z" fill="#455A64" class="fill-455a64"></path><path d="M15 31C7.28 31 1 24.72 1 17S7.28 3 15 3c.279 0 .556.008.831.024.276.016.486.253.47.528s-.261.485-.528.47A13.222 13.222 0 0 0 15 4C7.832 4 2 9.832 2 17s5.832 13 13 13 13-5.832 13-13c0-1.489-.25-2.949-.745-4.339a.5.5 0 0 1 .943-.335A13.93 13.93 0 0 1 29 17c0 7.72-6.28 14-14 14z" fill="#455A64" class="fill-455a64"></path><path d="M24.776 21.782c-.276 0-.5-.224-.5-.5s.224-.546.5-.546.5.177.5.454v.093a.5.5 0 0 1-.5.499zM8.948 26.438c-.276 0-.5-.224-.5-.5s.224-.546.5-.546.5.177.5.454v.093a.5.5 0 0 1-.5.499zM15.465 11.541c-.276 0-.5-.224-.5-.5s.224-.546.5-.546.5.177.5.454v.093a.5.5 0 0 1-.5.499zM25.294 19.065a.492.492 0 0 1-.264-.076 3.296 3.296 0 0 1-1.215-1.351.5.5 0 1 1 .898-.438c.19.389.482.714.846.941a.5.5 0 0 1-.265.924zM24.116 13a.506.506 0 0 1-.236-.059c-.271-.145-6.648-3.604-6.648-7.948a3.992 3.992 0 0 1 6.884-2.754A3.992 3.992 0 0 1 27.007 1 3.979 3.979 0 0 1 31 4.993c0 4.344-6.376 7.803-6.648 7.948a.506.506 0 0 1-.236.059zM21.225 2a2.997 2.997 0 0 0-2.993 2.993c0 3.32 4.759 6.28 5.884 6.933C25.241 11.273 30 8.313 30 4.993A2.98 2.98 0 0 0 27.007 2c-.992 0-1.918.491-2.477 1.313-.187.273-.641.273-.827 0A2.996 2.996 0 0 0 21.225 2z" fill="#455A64" class="fill-455a64"></path></svg>