<svg xmlns="http://www.w3.org/2000/svg" xmlns:xlink="http://www.w3.org/1999/xlink" width="500" zoomAndPan="magnify" viewBox="0 0 375 374.999991" height="500" preserveAspectRatio="xMidYMid meet" version="1.0"><defs><clipPath id="id1"><path d="M 187 85 L 337.5 85 L 337.5 339.714844 L 187 339.714844 Z M 187 85 " clip-rule="nonzero"/></clipPath><clipPath id="id2"><path d="M 37.5 35.214844 L 337.5 35.214844 L 337.5 176 L 37.5 176 Z M 37.5 35.214844 " clip-rule="nonzero"/></clipPath><clipPath id="id3"><path d="M 37.5 85 L 188 85 L 188 339.714844 L 37.5 339.714844 Z M 37.5 85 " clip-rule="nonzero"/></clipPath></defs><g clip-path="url(#id1)"><path fill="#ff3644" d="M 187.53125 339.632812 L 337.535156 249.511719 L 337.535156 85.304688 L 187.53125 175.421875 L 187.53125 339.632812 " fill-opacity="1" fill-rule="nonzero"/></g><g clip-path="url(#id2)"><path fill="#da1744" d="M 246.78125 35.644531 L 187.53125 70.726562 L 128.941406 35.285156 L 37.527344 85.304688 L 187.53125 175.421875 L 337.535156 85.304688 L 246.78125 35.644531 " fill-opacity="1" fill-rule="nonzero"/></g><g clip-path="url(#id3)"><path fill="#ad1038" d="M 187.53125 339.632812 L 37.527344 249.511719 L 37.527344 85.304688 L 187.53125 175.421875 L 187.53125 339.632812 " fill-opacity="1" fill-rule="nonzero"/></g><path fill="#8b1534" d="M 246.464844 140.015625 L 187.53125 175.421875 L 128.601562 140.015625 L 187.53125 107.769531 L 246.464844 140.015625 " fill-opacity="1" fill-rule="nonzero"/><path fill="#da1744" d="M 246.464844 280.9375 L 187.53125 316.34375 L 128.601562 280.9375 L 187.53125 248.691406 L 246.464844 280.9375 " fill-opacity="1" fill-rule="nonzero"/><path fill="#8b1534" d="M 128.601562 140.015625 L 128.601562 280.9375 L 187.53125 248.691406 L 187.53125 107.769531 L 128.601562 140.015625 " fill-opacity="1" fill-rule="nonzero"/><path fill="#ad1038" d="M 246.464844 140.015625 L 246.464844 280.9375 L 187.53125 248.691406 L 187.53125 107.769531 L 246.464844 140.015625 " fill-opacity="1" fill-rule="nonzero"/></svg>